<svg xmlns="http://www.w3.org/2000/svg" viewBox="0 0 64 64">
  <defs>
    <linearGradient id="g" x1="0" y1="0" x2="1" y2="1">
      <stop offset="0" stop-color="#173b57"/>
      <stop offset="1" stop-color="#2f6bff"/>
    </linearGradient>
  </defs>
  <rect width="64" height="64" rx="18" fill="url(#g)"/>
  <path d="M43.8 20.2c-3.1-2.4-7-3.7-11.6-3.7-7.7 0-12.8 3.8-12.8 9.6 0 5.4 3.8 8 11.4 9.5 5.3 1.1 6.8 2 6.8 4.1 0 2.2-2.1 3.6-5.6 3.6-4.1 0-7.8-1.5-11-4.4l-4.2 5.1c4 3.8 9.2 5.7 15 5.7 8.3 0 13.7-4 13.7-10.2 0-5.6-3.7-8.2-11.5-9.8-5.4-1.1-6.8-1.9-6.8-3.8 0-1.9 1.8-3.1 4.9-3.1 3.2 0 6.2 1.1 8.8 3.1z" fill="#fff"/>
</svg>
